<?xml version="1.0" encoding="UTF-8" standalone="no"?> <!-- Created with Vectornator for iOS (http://vectornator.io/) --><!DOCTYPE svg PUBLIC "-//W3C//DTD SVG 1.1//EN" "http://www.w3.org/Graphics/SVG/1.1/DTD/svg11.dtd">
<svg style="fill-rule:evenodd;clip-rule:evenodd;stroke-linecap:round;stroke-linejoin:round;" xmlns:vectornator="http://vectornator.io" xmlns:xlink="http://www.w3.org/1999/xlink" xmlns="http://www.w3.org/2000/svg" xml:space="preserve" version="1.1" viewBox="0 0 432 432">
<metadata>
<vectornator:setting key="DynamicGuides" value="1"/>
<vectornator:setting key="Units" value="Points"/>
<vectornator:setting key="GuidesVisible" value="1"/>
<vectornator:setting key="RulersVisible" value="1"/>
<vectornator:setting key="SnapToGuides" value="1"/>
<vectornator:setting key="GridSpacing" value="36"/>
</metadata>
<defs>
<path d="M0+0L432+0L432+432L0+432L0+0Z" id="Mask"/>
</defs>
<g id="Layer 8" vectornator:layerName="Layer 8">
<g opacity="1" vectornator:mask="#Mask">
<clipPath id="ClipPath">
<use xlink:href="#Mask" fill="none" overflow="visible"/>
</clipPath>
<g clip-path="url(#ClipPath)">
<path d="M420.819+217.532C420.819+330.517+329.226+422.11+216.241+422.11C103.256+422.11+11.6633+330.517+11.6633+217.532C11.6633+104.547+103.256+12.9542+216.241+12.9542C329.226+12.9542+420.819+104.547+420.819+217.532" opacity="1" fill="#ffffff"/>
</g>
</g>
<path d="M105.764+106.341L362.645+293.758C362.645+293.758+377.16+331.197+335.845+328.728L69.5892+137.97L67.4692+126.764L71.0572+113.257L83.6842+103.547L98.1312+102.471L105.764+106.341Z" opacity="1" fill="#fec77c"/>
<path d="M324.934+103.977L71.9316+296.599C71.9316+296.599+58.1846+334.327+99.4396+331.015L361.747+134.861L363.638+123.614L359.775+110.183L346.952+100.733L332.486+99.9521L324.934+103.977Z" opacity="1" fill="#fec77c"/>
<path d="M67.4688+116.022L357.66+324.157L365.455+313.79L362.646+293.758L349.769+283.715L342.323+293.758L337.921+304.477L333.798+297.386L335.643+287.817L340.934+277.918L299.634+247.786L298.798+252.091L288.052+269.452L284.787+261.192L292.633+241.132L157.931+144.736C157.931+144.736+149.14+149.58+141.688+164.018C141.688+164.018+135.037+153.501+147.396+136.36L105.764+106.341C105.764+106.341+95.4178+124.915+94.1368+129.573C94.1368+129.573+85.7208+118.988+98.1318+102.472C98.1318+102.472+85.9118+96.8765+67.4688+116.022" opacity="1" fill="#c18543"/>
<path d="M365.139+113.972L76.5817+324.367L68.7057+314.061L71.3597+294.009L84.1577+283.865L91.6807+293.849L96.1667+304.533L100.235+297.41L98.3157+287.856L92.9467+277.999L134.01+247.545L134.88+251.844L145.761+269.12L148.962+260.835L140.96+240.837L274.904+143.391C274.904+143.391+283.733+148.166+291.297+162.546C291.297+162.546+297.866+151.977+285.373+134.933L326.77+104.59C326.77+104.59+337.261+123.082+338.577+127.73C338.577+127.73+346.91+117.08+334.371+100.661C334.371+100.661+346.547+94.9722+365.139+113.972" opacity="1" fill="#c18544"/>
<g opacity="1">
<path d="M166.652+75.889C171.962+75.889+176.329+76.7575+179.754+78.4946C183.178+80.2316+185.747+82.9984+187.459+86.7951C189.171+90.5917+190.027+95.6167+190.027+101.87C190.027+111.151+188.129+117.826+184.332+121.895C180.536+125.965+174.642+128+166.652+128L152.135+128L152.135+75.889L166.652+75.889ZM167.545+120.555C170.92+120.555+173.612+120.022+175.622+118.955C177.632+117.888+179.121+116.002+180.089+113.297C181.057+110.592+181.541+106.783+181.541+101.87C181.541+97.0063+181.057+93.2345+180.089+90.5545C179.121+87.8745+177.632+86.001+175.622+84.934C173.612+83.8669+170.92+83.3334+167.545+83.3334L160.622+83.3334L160.622+120.555L167.545+120.555Z" opacity="1" fill="#231f20"/>
<path d="M215.487+97.1055C219.755+98.7433+222.993+100.121+225.202+101.237C227.41+102.354+229.321+103.892+230.934+105.853C232.547+107.813+233.353+110.307+233.353+113.334C233.353+116.312+232.535+118.955+230.897+121.263C229.259+123.57+227.051+125.369+224.271+126.66C221.492+127.95+218.415+128.595+215.04+128.595C210.871+128.595+207.062+127.603+203.613+125.618C200.164+123.632+197.67+120.878+196.132+117.354L202.236+113.409C203.774+115.94+205.685+117.826+207.968+119.066C210.251+120.307+212.608+120.928+215.04+120.928C217.571+120.928+219.83+120.344+221.815+119.178C223.8+118.012+224.792+116.163+224.792+113.632C224.792+111.448+223.936+109.724+222.224+108.458C220.512+107.193+217.695+105.865+213.775+104.475C208.564+102.689+204.68+100.604+202.124+98.2222C199.568+95.84+198.29+92.8871+198.29+89.3634C198.29+86.6834+199.035+84.264+200.524+82.1051C202.013+79.9462+204.035+78.2712+206.591+77.0801C209.147+75.889+212.013+75.2935+215.189+75.2935C219.457+75.2935+223.13+76.2737+226.207+78.234C229.284+80.1944+231.517+82.5393+232.907+85.269L227.1+89.5123C225.314+87.1301+223.477+85.4427+221.591+84.4501C219.705+83.4575+217.621+82.9612+215.338+82.9612C213.005+82.9612+211.008+83.5195+209.345+84.6362C207.683+85.7528+206.851+87.3534+206.851+89.4378C206.851+91.026+207.472+92.3908+208.713+93.5322C209.953+94.6737+212.211+95.8648+215.487+97.1055Z" opacity="1" fill="#231f20"/>
<path d="M272.809+128L269.682+116.982L250.252+116.982L247.126+128L238.341+128L253.9+75.889L266.034+75.889L281.593+128L272.809+128ZM252.337+109.612L267.598+109.612L260.526+84.8223L259.409+84.8223L252.337+109.612Z" opacity="1" fill="#231f20"/>
</g>
<g opacity="1">
<path d="M148.078+334.475C152.346+336.113+155.584+337.49+157.793+338.607C160.001+339.723+161.912+341.262+163.525+343.222C165.138+345.183+165.944+347.676+165.944+350.704C165.944+353.682+165.125+356.324+163.487+358.632C161.85+360.94+159.641+362.739+156.862+364.029C154.083+365.32+151.006+365.965+147.631+365.965C143.462+365.965+139.653+364.972+136.204+362.987C132.755+361.002+130.261+358.247+128.722+354.724L134.827+350.778C136.365+353.309+138.276+355.195+140.559+356.436C142.842+357.677+145.199+358.297+147.631+358.297C150.162+358.297+152.42+357.714+154.405+356.548C156.391+355.381+157.383+353.533+157.383+351.002C157.383+348.818+156.527+347.093+154.815+345.828C153.103+344.562+150.286+343.235+146.365+341.845C141.154+340.058+137.271+337.974+134.715+335.592C132.159+333.209+130.881+330.257+130.881+326.733C130.881+324.053+131.626+321.633+133.114+319.475C134.603+317.316+136.626+315.641+139.182+314.45C141.737+313.258+144.604+312.663+147.78+312.663C152.048+312.663+155.721+313.643+158.798+315.603C161.875+317.564+164.108+319.909+165.497+322.638L159.691+326.882C157.904+324.5+156.068+322.812+154.182+321.82C152.296+320.827+150.212+320.331+147.929+320.331C145.596+320.331+143.599+320.889+141.936+322.006C140.273+323.122+139.442+324.723+139.442+326.807C139.442+328.395+140.062+329.76+141.303+330.902C142.544+332.043+144.802+333.234+148.078+334.475Z" opacity="1" fill="#231f20"/>
<path d="M231.306+313.258L219.469+365.369L211.206+365.369L200.709+326.509L200.114+326.509L189.543+365.369L181.28+365.369L169.443+313.258L178.302+313.258L185.895+350.927L186.491+350.927L196.317+313.258L204.506+313.258L214.258+350.927L214.854+350.927L222.522+313.258L231.306+313.258Z" opacity="1" fill="#231f20"/>
<path d="M268.453+357.701L268.453+365.369L238.899+365.369L238.899+313.258L247.386+313.258L247.386+357.701L268.453+357.701Z" opacity="1" fill="#231f20"/>
<path d="M307.536+365.369L304.41+354.352L284.98+354.352L281.853+365.369L273.069+365.369L288.628+313.258L300.762+313.258L316.321+365.369L307.536+365.369ZM287.064+346.982L302.325+346.982L295.253+322.192L294.137+322.192L287.064+346.982Z" opacity="1" fill="#231f20"/>
</g>
<path stroke="#231f20" stroke-width="5" d="M328.344+102.052L91.0247+281.232L76.4507+292.235C73.0927+294.771+70.7967+298.485+70.1287+302.64C68.5077+312.74+69.1067+330.565+92.8927+332.402C96.8827+332.711+100.852+331.527+104.046+329.115L356.725+138.339C360.444+135.531+362.825+131.287+363.215+126.643C363.966+117.677+361.704+103.792+342.077+99.1632C337.299+98.0362+332.262+99.0942+328.344+102.052Z" fill="none" stroke-linecap="butt" opacity="1" stroke-linejoin="miter"/>
<path stroke="#231f20" stroke-width="5" d="M83.6846+287.318C83.6846+287.318+94.7096+293.672+95.6566+305.679C95.7376+306.7+96.9606+307.649+97.5156+307.107C100.564+304.122+105.229+296.12+93.0456+280.251" fill="none" stroke-linecap="butt" opacity="1" stroke-linejoin="miter"/>
<path stroke="#231f20" stroke-width="5" d="M131.883+251.727C131.883+251.727+142.908+258.081+143.855+270.088C143.936+271.109+145.159+272.058+145.714+271.516C148.762+268.531+153.427+260.529+141.244+244.66" fill="none" stroke-linecap="butt" opacity="1" stroke-linejoin="miter"/>
<path stroke="#231f20" stroke-width="5" d="M179.697+215.627C179.697+215.627+190.722+221.98+191.669+233.988C191.749+235.008+192.973+235.958+193.528+235.416C196.576+232.43+201.241+224.429+189.058+208.559" fill="none" stroke-linecap="butt" opacity="1" stroke-linejoin="miter"/>
<path stroke="#231f20" stroke-width="5" d="M227.511+179.527C227.511+179.527+238.536+185.88+239.483+197.888C239.564+198.908+240.787+199.858+241.341+199.316C244.39+196.33+249.055+188.329+236.872+172.459" fill="none" stroke-linecap="butt" opacity="1" stroke-linejoin="miter"/>
<path stroke="#231f20" stroke-width="5" d="M275.324+143.427C275.324+143.427+286.349+149.78+287.297+161.788C287.377+162.808+288.6+163.758+289.155+163.215C292.204+160.23+296.868+152.229+284.685+136.359" fill="none" stroke-linecap="butt" opacity="1" stroke-linejoin="miter"/>
<path stroke="#231f20" stroke-width="5" d="M322.754+106.818C322.754+106.818+333.779+113.171+334.726+125.179C334.807+126.199+336.03+127.149+336.584+126.606C339.633+123.621+344.298+115.62+332.115+99.7499" fill="none" stroke-linecap="butt" opacity="1" stroke-linejoin="miter"/>
<path stroke="#231f20" stroke-width="5" d="M101.955+104.685L343.369+278.308L358.194+288.971C361.611+291.428+363.993+295.088+364.756+299.226C366.612+309.286+366.425+327.12+342.689+329.508C338.707+329.91+334.711+328.818+331.462+326.481L74.4236+141.621C70.6406+138.899+68.1616+134.712+67.6636+130.078C66.7046+121.132+68.6436+107.198+88.1586+102.115C92.9086+100.878+97.9696+101.819+101.955+104.685Z" fill="none" stroke-linecap="butt" opacity="1" stroke-linejoin="miter"/>
<path stroke="#231f20" stroke-width="5" d="M350.848+284.224C350.848+284.224+339.974+290.831+339.306+302.858C339.248+303.879+338.047+304.857+337.481+304.328C334.364+301.414+329.514+293.524+341.326+277.375" fill="none" stroke-linecap="butt" opacity="1" stroke-linejoin="miter"/>
<path stroke="#231f20" stroke-width="5" d="M301.837+249.761C301.837+249.761+290.962+256.368+290.294+268.395C290.237+269.417+289.035+270.395+288.469+269.865C285.352+266.951+280.502+259.061+292.314+242.912" fill="none" stroke-linecap="butt" opacity="1" stroke-linejoin="miter"/>
<path stroke="#231f20" stroke-width="6" d="M253.198+214.78C253.198+214.78+242.323+221.387+241.655+233.414C241.598+234.436+240.396+235.413+239.83+234.884C236.713+231.971+231.863+224.079+243.675+207.931" fill="none" stroke-linecap="butt" opacity="1" stroke-linejoin="miter"/>
<path stroke="#231f20" stroke-width="6" d="M204.559+179.799C204.559+179.799+193.684+186.406+193.016+198.433C192.959+199.455+191.758+200.432+191.191+199.903C188.074+196.989+183.225+189.098+195.036+172.95" fill="none" stroke-linecap="butt" opacity="1" stroke-linejoin="miter"/>
<path stroke="#231f20" stroke-width="5" d="M155.92+144.818C155.92+144.818+145.045+151.425+144.377+163.452C144.32+164.474+143.119+165.451+142.552+164.922C139.435+162.008+134.586+154.118+146.397+137.969" fill="none" stroke-linecap="butt" opacity="1" stroke-linejoin="miter"/>
<path stroke="#231f20" stroke-width="5" d="M107.654+109.32C107.654+109.32+96.7788+115.927+96.1118+127.954C96.0548+128.976+94.8528+129.953+94.2868+129.424C91.1688+126.51+86.3198+118.619+98.1318+102.471" fill="none" stroke-linecap="butt" opacity="1" stroke-linejoin="miter"/>
<path d="M198.79+160.763C198.79+160.763+170.835+149.78+172.089+180.786C173.343+211.794+172.089+180.786+172.089+180.786C172.089+180.786+147.341+191.027+166.912+216.878C186.482+242.728+166.912+216.878+166.912+216.878C166.912+216.878+207.272+221.248+211.929+235.231L224.071+229.184L239.873+221.431L251.491+218.44L264.78+218.44L269.974+208.634L269.974+198.488L263.322+187.552L264.78+179.112L258.515+170.713L244.921+164.89L236.71+157.24L222.407+153.25L209.22+156.649L198.79+160.763Z" opacity="1" fill="#eb2027"/>
<path d="M208.797+255.701C208.797+255.701+164.195+280.815+138.583+232.583C138.583+232.583+172.093+197.324+213.05+236.741C213.05+236.741+244.028+200.252+298.081+231.553C298.081+231.553+268.151+286.721+214.676+255.161C161.202+223.602+214.676+255.161+214.676+255.161L208.797+255.701Z" opacity="1" fill="#0c9444"/>
<path d="M292.762+236.604C288.918+236.957+285.465+237.776+281.723+239.086C282.718+241.425+284.481+242.711+286.195+244.211C288.732+241.883+291.129+239.847+292.762+236.604M281.561+234.297C285.494+234.427+289.208+232.843+293.405+232.029C291.376+229.229+288.348+228.394+285.56+227.031C283.742+229.473+282.472+231.718+281.561+234.297M221.885+169.724C221.038+167.375+219.734+165.292+216.791+164.994C213.219+164.632+210.097+165.589+207.766+168.596C212.808+172.507+216.714+172.787+221.885+169.724M143.134+231.491C149.002+233.243+154.082+234.314+159.708+235.187C157.566+231.445+155.351+228.472+153.117+225.371C149.173+226.559+146.531+228.917+143.134+231.491M281.188+225.517C279.783+224.378+278.16+223.836+276.083+223.625C272.458+227.657+269.813+232.208+266.426+237.028C269.897+237.033+272.744+236.635+275.915+235.471C277.506+231.948+280.184+229.02+281.188+225.517M160.253+239.694C153.942+237.487+148.272+236.899+142.204+235.675C144.322+241.294+147.835+245.074+152.664+248.649C155.242+245.633+157.553+242.909+160.253+239.694M276.717+240.946C276.015+240.048+274.663+240.036+273.448+240.251C271.053+240.677+268.66+241.244+265.953+241.774C268.043+246.399+271.412+249.806+273.765+254.031C277.2+252.276+279.821+250.214+282.355+247.774C280.916+245.064+278.516+243.246+276.717+240.946M156.274+251.133C158+253.245+160.245+254.118+162.886+255.524C167.393+251.87+170.346+246.826+174.783+242.225C171.193+241.436+168.504+240.972+165.631+240.792C162.423+244.378+159.387+247.733+156.274+251.133M190.676+239.506C188.235+233.622+185.858+227.859+183.301+221.618C181.954+221.107+179.909+220.212+177.425+220.948C178.541+226.758+179.668+232.61+180.83+238.631C184.408+239.196+187.349+239.978+190.676+239.506M219.308+241.178C222.576+241.741+225.655+241.357+229.058+241.169C231.836+235.663+234.631+230.084+237.712+223.883C230.44+226.673+224.98+230.611+219.409+234.707C219.373+237.041+219.342+239.021+219.308+241.178M219.099+251.903C222.638+257.101+227.242+261+234.504+262.007C233.197+256.264+231.081+251.106+229.407+245.639C226.074+245.284+222.87+245.611+219.473+245.826C218.749+248.119+219.07+249.976+219.099+251.903M245.359+171.314C252.361+175.498+256.662+181.284+258.338+188.937C258.411+189.271+258.668+189.55+258.844+189.865C262.305+187.361+263.474+182.751+261.891+178.18C259.507+171.298+251.374+167.031+242.823+167.889C243.074+169.46+244.017+170.514+245.359+171.314M234.347+245.166C235.644+251.42+238.005+257.017+239.862+262.783C243.52+264.049+247.191+263.375+251.448+262.763C247.876+256.629+244.445+250.683+240.972+244.609C238.754+244.817+236.744+244.988+234.347+245.166M189.632+244.555C186.347+242.701+183.197+243.704+180.116+242.768C176.311+247.896+171.631+252.189+168.073+257.635C171.252+259.25+174.294+259.875+177.983+260.427C182.191+255.465+185.802+250.109+189.632+244.555M198.517+175.45C206.927+186.234+220.351+185.525+226.407+172.902C216.885+177.361+208.513+177.147+201.92+169.215C198.651+171.088+198.446+171.475+198.517+175.45M195.825+240.422C199.748+240.749+203.53+241+207.376+241.192C208.545+238.89+207.984+236.615+208.183+234.18C203.501+228.978+197.54+225.575+189.617+223.183C191.429+229.467+193.705+234.828+195.825+240.422M262.936+221.006C257.879+227.01+252.791+232.989+247.739+239.432C252.126+239.703+256.008+238.846+260.084+238.311C264.033+233.33+267.868+228.186+271.416+222.207C268.2+221.824+265.894+221.017+262.936+221.006M257.605+220.906C252.949+220.174+248.783+220.51+244.317+221.394C241.183+227.772+238.067+234.063+234.854+240.495C236.774+241.355+238.778+240.267+241.017+240.57C246.563+234.144+251.868+227.861+257.605+220.906M268.426+200.077C267.623+197.095+266.228+194.495+263.451+192.658C260.77+193.952+259.43+195.756+259.193+198.516C258.494+206.639+257.947+208.113+253.406+216.023C263.534+219.328+270.286+206.997+268.426+200.077M203.362+161.967C203.269+163.02+203.627+163.907+204.688+164.506C213.309+159.211+220.343+158.717+226.117+167.142C228.135+167.181+228.917+165.273+230.576+164.585C233.487+163.718+236.645+163.799+239.842+163.128C231.504+152.584+212.537+153.654+203.362+161.967M156.929+223.694C159.493+228.132+162.441+232.396+165.841+236.425C169.282+237.087+172.612+238.276+176.234+237.826C175.675+231.91+174.132+226.203+172.793+220.53C167.196+219.969+161.553+221.067+156.929+223.694M195.125+244.725C191.413+250.027+187.784+255.155+183.724+260.818C193.488+261.066+201.176+258.392+206.989+252.032C208.621+250.246+207.393+247.936+207.959+245.436C203.278+245.24+199.237+244.577+195.125+244.725M269.73+256.278C266.603+251.708+263.586+247.26+260.459+242.609C255.801+242.958+251.25+243.566+246.117+244.248C249.653+250.369+252.953+256.031+256.4+261.892C261.136+260.313+265.606+259.309+269.73+256.278M188.978+159.692C184.293+160.206+181.008+162.538+178.474+165.818C175.674+169.445+174.303+173.585+174.345+178.53C177.937+178+181.04+177.494+184.346+176.911C188.713+172.685+195.06+170.182+199.066+164.712C196.75+160.983+193.218+159.229+188.978+159.692M162.946+192.305C159.872+198.562+162.185+209.417+168.047+216.239C172.515+215.594+177.365+216.305+182.734+217.009C180.192+210.981+177.633+205.33+176.977+199.351C176.314+193.309+177.608+187.813+180.023+181.915C171.952+183.221+166.043+186+162.946+192.305M198.8+191.576C205.419+197.653+218.046+199.146+225.785+194.604C232.406+190.719+237.14+185.187+239.8+178.333C241.931+172.842+239.683+169.822+233.261+168.962C231.269+173.533+228.747+177.802+225.235+181.673C218.281+189.338+209.887+189.207+201.61+183.615C200.409+182.804+199.511+181.501+197.698+181.334C197.38+184.867+197.802+188.332+198.8+191.576M193.345+176.735C174.817+182.966+182.886+206.306+188.551+218.211C192.494+220.042+197.116+221.208+201.148+223.587C205.035+225.88+208.718+228.35+211.455+231.188C214.645+232.115+216.782+231.651+219.015+229.78C221.812+227.438+225.191+225.649+229.184+222.964C207.186+217.298+191.012+200.431+193.345+176.735M212.336+211.076C216.742+214.089+221.698+216.243+226.905+217.906C232.607+219.728+237.867+219.569+243.584+217.448C246.244+216.458+248.375+215.12+249.902+213.108C258.068+202.536+256.019+184.778+245.332+176.902C243.189+179.949+242.362+183.47+240.349+186.528C233.677+196.67+221.892+203.416+209.642+201.062C207.269+200.604+204.949+199.715+201.74+198.71C204.132+204.326+207.969+208.09+212.336+211.076M298.042+237.559C292.658+244.134+286.72+250.137+279.799+254.931C258.179+267.944+241.079+270.814+218.194+259.725C216.204+259.677+214.072+261.825+211.268+260.781C210.283+259.649+209.129+258.58+207.47+258.144C184.042+275.512+143.386+258.653+136.203+231.233C142.722+224.142+153.73+218.833+162.953+216.622C158.574+209.483+156.574+202.431+157.458+195.306C158.394+187.758+163.296+183.29+169.885+180.117C169.501+173.039+171.189+167.102+175.55+162.104C180.35+156.604+189.948+152.475+199.021+158.139C199.332+158.332+199.784+158.323+200.111+158.394C217.253+146.85+231.879+151.205+246.577+163.264C259.547+166.54+269.866+173.532+265.783+188.173C275.755+196.264+273.893+207.295+266.991+216.837C273.708+218.128+280.304+219.437+286.128+221.946C291.933+224.447+297.539+227.165+301.418+231.905C300.609+234.093+299.436+235.857+298.042+237.559" opacity="1" fill="#231f20"/>
<path d="M210.368+238.849L210.368+302.707C210.368+302.707+213.991+306.689+218.066+302.707L218.066+238.703C218.066+237.266+217.275+235.859+215.844+235.157C214.893+234.69+213.687+234.544+212.321+235.38C211.049+236.16+210.368+237.49+210.368+238.849" opacity="1" fill="#0c9444"/>
<path stroke="#231f20" stroke-width="4" d="M210.368+238.849L210.368+302.707C210.368+302.707+213.991+306.689+218.066+302.707L218.066+238.703C218.066+237.266+217.275+235.859+215.844+235.157C214.893+234.69+213.687+234.544+212.321+235.38C211.049+236.16+210.368+237.49+210.368+238.849Z" fill="none" stroke-linecap="butt" opacity="1" stroke-linejoin="miter"/>
</g>
</svg>
